<?xml version="1.0" encoding="utf-8"?>
<!-- Generator: Adobe Illustrator 23.0.2, SVG Export Plug-In . SVG Version: 6.00 Build 0)  -->
<svg version="1.1" id="Layer_1" xmlns="http://www.w3.org/2000/svg" xmlns:xlink="http://www.w3.org/1999/xlink" x="0px" y="0px"
	 viewBox="0 0 574 171" style="enable-background:new 0 0 574 171;" xml:space="preserve">
<style type="text/css">
	.st0{fill:#FF4D4D;}
	.st1{fill:#4DB5FF;}
	.st2{fill:#FFE14D;}
	.st3{fill:#333333;}
	.st4{fill:#F46524;}
	.st5{fill:#FFFFFF;}
</style>
<g>
	<path class="st0" d="M403,171H0V0h574v0C574,94.44,497.44,171,403,171z"/>
	<path class="st1" d="M371,171H0V0h542v0C542,94.44,465.44,171,371,171z"/>
	<path class="st2" d="M339,171H0V0h510v0C510,94.44,433.44,171,339,171z"/>
</g>
<g>
	<path class="st3" d="M66.9,97.81v3.92H48v-25.2h18.39v3.92H52.68v6.55h12.17v3.85H52.68v6.95H66.9z"/>
	<path class="st3" d="M90.3,82.23v26.21h-4.5v-9.32c-1.55,1.76-3.71,2.59-6.16,2.59c-5.62,0-9.72-3.89-9.72-9.86
		c0-5.94,4.1-9.83,9.72-9.83c2.63,0,4.86,0.9,6.37,2.74v-2.52H90.3z M85.87,91.84c0-3.67-2.45-6.01-5.72-6.01
		c-3.24,0-5.69,2.34-5.69,6.01c0,3.67,2.45,6.01,5.69,6.01C83.42,97.85,85.87,95.51,85.87,91.84z"/>
	<path class="st3" d="M114.81,82.51v19.22h-4.28v-2.45c-1.44,1.76-3.71,2.7-6.19,2.7c-4.93,0-8.28-2.7-8.28-8.5V82.51h4.5v10.37
		c0,3.49,1.66,5.15,4.5,5.15c3.13,0,5.26-1.94,5.26-5.79v-9.72H114.81z"/>
	<path class="st3" d="M120.11,76.65c0-1.51,1.22-2.7,2.88-2.7s2.88,1.12,2.88,2.59c0,1.58-1.19,2.81-2.88,2.81
		C121.33,79.35,120.11,78.16,120.11,76.65z M120.72,82.51h4.5v19.22h-4.5V82.51z"/>
	<path class="st3" d="M151.53,91.89c0,5.97-4.14,9.86-9.75,9.86c-2.45,0-4.61-0.83-6.16-2.59v9.32h-4.5V82.28h4.28v2.52
		c1.51-1.84,3.74-2.74,6.37-2.74C147.39,82.06,151.53,85.95,151.53,91.89z M146.96,91.89c0-3.67-2.45-6.01-5.69-6.01
		c-3.24,0-5.72,2.34-5.72,6.01c0,3.67,2.48,6.01,5.72,6.01C144.51,97.9,146.96,95.56,146.96,91.89z"/>
	<path class="st3" d="M173.82,93.31h-15.08c0.54,2.81,2.88,4.61,6.23,4.61c2.16,0,3.85-0.68,5.22-2.09l2.41,2.77
		c-1.73,2.05-4.43,3.13-7.74,3.13c-6.44,0-10.62-4.14-10.62-9.86c0-5.72,4.21-9.83,9.94-9.83c5.62,0,9.72,3.92,9.72,9.93
		C173.89,92.34,173.85,92.88,173.82,93.31z M158.7,90.32h10.91c-0.36-2.77-2.48-4.68-5.44-4.68
		C161.25,85.64,159.13,87.52,158.7,90.32z"/>
</g>
<g>
	<rect x="189.82" y="53.5" class="st4" width="170" height="64"/>
	<g>
		<path class="st3" d="M230.91,93.68c0,1.32-0.26,2.48-0.79,3.48c-0.53,1-1.25,1.83-2.18,2.51c-0.92,0.68-2,1.19-3.21,1.54
			c-1.22,0.35-2.52,0.53-3.89,0.53h-15.09V70.5h16.72c1.08,0,2.07,0.24,2.95,0.7c0.88,0.47,1.63,1.08,2.24,1.83s1.09,1.6,1.43,2.55
			c0.34,0.95,0.51,1.91,0.51,2.88c0,1.53-0.38,2.96-1.14,4.29c-0.76,1.33-1.88,2.33-3.34,2.97c1.79,0.53,3.2,1.47,4.25,2.84
			C230.38,89.92,230.91,91.63,230.91,93.68z M211.81,75.69v7.88h8.1c1.03,0,1.9-0.35,2.62-1.06c0.72-0.7,1.08-1.67,1.08-2.9
			c0-1.2-0.33-2.16-0.99-2.86c-0.66-0.7-1.47-1.06-2.44-1.06H211.81z M224.79,92.54c0-0.56-0.1-1.09-0.29-1.61
			c-0.19-0.51-0.45-0.96-0.77-1.34c-0.32-0.38-0.7-0.68-1.14-0.9c-0.44-0.22-0.92-0.33-1.45-0.33h-9.33v8.23h9.02
			c0.56,0,1.08-0.1,1.56-0.31c0.48-0.21,0.9-0.49,1.25-0.86c0.35-0.37,0.63-0.8,0.84-1.3C224.69,93.63,224.79,93.1,224.79,92.54z"/>
		<path class="st3" d="M245.78,101.74c-1.85,0-3.52-0.32-5.02-0.95c-1.5-0.63-2.77-1.49-3.83-2.57c-1.06-1.08-1.87-2.35-2.44-3.78
			c-0.57-1.44-0.86-2.95-0.86-4.53c0-1.64,0.28-3.19,0.84-4.64c0.56-1.45,1.36-2.73,2.42-3.83c1.06-1.1,2.34-1.97,3.85-2.62
			c1.51-0.65,3.2-0.97,5.08-0.97c1.88,0,3.56,0.32,5.04,0.97c1.48,0.65,2.74,1.51,3.78,2.6c1.04,1.09,1.83,2.35,2.38,3.78
			c0.54,1.44,0.81,2.93,0.81,4.49c0,0.38-0.01,0.75-0.02,1.1c-0.02,0.35-0.05,0.65-0.11,0.88h-17.82c0.09,0.91,0.31,1.72,0.66,2.42
			s0.81,1.31,1.36,1.8c0.56,0.5,1.19,0.88,1.89,1.14c0.7,0.26,1.44,0.4,2.2,0.4c1.17,0,2.28-0.29,3.32-0.86
			c1.04-0.57,1.75-1.33,2.13-2.27l5.06,1.41c-0.85,1.76-2.21,3.21-4.07,4.33C250.58,101.17,248.36,101.74,245.78,101.74z
			 M251.76,87.83c-0.15-1.73-0.79-3.12-1.91-4.16c-1.13-1.04-2.5-1.56-4.11-1.56c-0.79,0-1.53,0.14-2.22,0.42
			c-0.69,0.28-1.3,0.67-1.83,1.17c-0.53,0.5-0.96,1.1-1.3,1.8c-0.34,0.7-0.54,1.48-0.59,2.33H251.76z"/>
		<path class="st5" d="M261.75,85.28v-6.34h4.79v6.34H261.75z M261.75,101.74V95.4h4.79v6.34H261.75z"/>
		<path class="st5" d="M272.09,69.26h5.9v24.46c0,1.79,0.81,2.68,2.42,2.68c0.32,0,0.7-0.06,1.12-0.18c0.42-0.12,0.83-0.25,1.21-0.4
			l0.79,4.71c-0.79,0.38-1.72,0.67-2.77,0.88c-1.06,0.21-2.01,0.31-2.86,0.31c-1.85,0-3.28-0.49-4.29-1.47
			c-1.01-0.98-1.52-2.38-1.52-4.2V69.26z"/>
		<path class="st5" d="M286.08,75.47v-5.85h5.9v5.85H286.08z M286.08,101.74V78.68h5.9v23.06H286.08z"/>
		<path class="st5" d="M303.33,101.74l-8.49-23.06h6.07l5.85,18.26l5.9-18.26h5.54l-8.49,23.06H303.33z"/>
		<path class="st5" d="M331.84,101.74c-1.85,0-3.52-0.32-5.02-0.95c-1.5-0.63-2.77-1.49-3.83-2.57c-1.06-1.08-1.87-2.35-2.44-3.78
			c-0.57-1.44-0.86-2.95-0.86-4.53c0-1.64,0.28-3.19,0.84-4.64c0.56-1.45,1.36-2.73,2.42-3.83c1.06-1.1,2.34-1.97,3.85-2.62
			c1.51-0.65,3.2-0.97,5.08-0.97c1.88,0,3.56,0.32,5.04,0.97c1.48,0.65,2.74,1.51,3.78,2.6c1.04,1.09,1.83,2.35,2.38,3.78
			c0.54,1.44,0.81,2.93,0.81,4.49c0,0.38-0.01,0.75-0.02,1.1c-0.02,0.35-0.05,0.65-0.11,0.88h-17.82c0.09,0.91,0.31,1.72,0.66,2.42
			c0.35,0.7,0.81,1.31,1.36,1.8c0.56,0.5,1.19,0.88,1.89,1.14c0.7,0.26,1.44,0.4,2.2,0.4c1.17,0,2.28-0.29,3.32-0.86
			c1.04-0.57,1.75-1.33,2.13-2.27l5.06,1.41c-0.85,1.76-2.21,3.21-4.07,4.33C336.64,101.17,334.42,101.74,331.84,101.74z
			 M337.82,87.83c-0.15-1.73-0.79-3.12-1.91-4.16c-1.13-1.04-2.5-1.56-4.11-1.56c-0.79,0-1.53,0.14-2.22,0.42
			c-0.69,0.28-1.3,0.67-1.83,1.17c-0.53,0.5-0.96,1.1-1.3,1.8c-0.34,0.7-0.54,1.48-0.59,2.33H337.82z"/>
	</g>
</g>
</svg>
