<?xml version="1.0" encoding="utf-8"?>
<!-- Generator: Adobe Illustrator 18.1.1, SVG Export Plug-In . SVG Version: 6.00 Build 0)  -->
<svg version="1.1" id="Layer_1" xmlns="http://www.w3.org/2000/svg" xmlns:xlink="http://www.w3.org/1999/xlink" x="0px" y="0px"
	 viewBox="0 0 248 179" enable-background="new 0 0 248 179" xml:space="preserve">
<g>
	<g>
		<path fill="#212E32" d="M101.2,80.3c0,0,0-0.1,0-0.1l0-5.3c0-1.1,0-3,0-3.9C100,58,93.9,50,89.1,45.8c-4.8-4-10.4-6.7-16-7.4
			c-2.2-0.3-2.9-0.2-4.8-0.2c2.9,0.5,6.4,2.4,9.3,5c5.7,5,9.3,12.4,10.4,23.3c0.3,2.5,0.4,4.3,0.4,4.6c0.1,0.4,0.1,2.2,0.1,2.5v8.1
			c0,0,0,0,0,0c0,0.1,0,1.2,0,6.9c0,1.2,0,2.5,0,4.2c0,12.1,12.7,12.7,12.7,12.7V80.3L101.2,80.3z"/>
		<path fill="#212E32" d="M199.5,33.1c0,0.1,0,0.3,0,0.4c0,0.1,0,0.1,0,0.2c0,2.3,0,11.3,0,11.9v0l0,0c-5.7-4.5-12.9-7.2-20.8-7.2
			c-7.9,0-15.1,2.7-20.8,7.2l-0.8,0.7c0,0-0.1,0.1-0.3,0.2c0.2,0.3,0.3,0.5,0.4,0.7c0.7,1.4,2.8,5.6,2.8,11.5c0,1.5,0,2.9,0.1,4.2
			c3.3-6.9,10.3-11.7,18.6-11.7c10.3,0,18.8,7.5,20.5,17.3c0,0,0,0,0,0.1h0c0.1,0.8,0.2,1.6,0.3,2.5c0.7,7.2,0.8,20.5-6.5,28.7
			c-2,2.2-4.4,3.9-7.2,5.1c15.2-3.2,26.6-16.7,26.6-32.8V33.7v-0.5v-5v-7.5C212.3,20.7,199.7,21.3,199.5,33.1z"/>
		<path fill="#212E32" d="M73.7,52c6,2.5,8.1,4.7,11.3,9.5c-1.4-7.8-4.4-13.3-12.2-18.9c-6.9-5-18-5.8-26.1-2
			C40.3,43.6,34,49.3,34,58c0,13.6,9.1,18.1,20,19.8c7.2,1.2,9.2,5,9.2,8.5c0,1.5-0.7,6.3-8.4,6.3C41.2,92.5,38.2,80,38.2,80
			s-6.3,8.1-0.9,16.6c3.5,4.9,9.8,9,19.6,9c15.7,0,20.7-12.2,20.7-19.3c0-8.3-4.7-17.4-15.6-20C56.2,65,49,64.6,49,58.1
			C49,50,63.3,47.6,73.7,52z"/>
		<path fill="#212E32" d="M120.2,41.6c-3.2-2.1-7-3.3-11.1-3.3c-4.6,0-8.8,1.5-12.2,4c-1.2,0.9-2.7,2.2-4,3.7
			c2.9,3.3,6,7.7,8.4,13.1v-0.2c0-4.3,3.8-7.8,7.7-7.8c4.3,0,7.8,3.5,7.8,7.8v19.1c0,0,0,1.2,0,1.1v2c0,0,0,0.9,0,0.9
			c0,0.2,0,1.7,0,8.8c0,0.1,0,0.3,0,0.4c0,0.5,0,1,0,1.5c0,12.1,12.8,12.7,12.8,12.7V91.3v-0.4V64.1h0c0-0.1,0-0.1,0-0.2V61
			c0-0.7,0-1.3,0-2c0-0.3,0-0.6,0-0.9C128.7,49.4,123.6,44.2,120.2,41.6z"/>
		<path fill="#212E32" d="M196.8,84.5c0.1-0.9,0.2-1.8,0.3-2.8c-3.5,6.5-10.4,11-18.3,11c-11.2,0-20.3-8.8-20.7-19.9
			c0-0.2-0.1-1.2-0.1-1.2c-0.3-2.8,0-12.1-1-17.5c-0.4-2.3-1.4-4.6-2.5-6.4c-3.7-5.6-10-9.3-17.2-9.3c-4.7,0-9,1.6-12.4,4.2
			c2.6,2.7,5,6.3,6.6,11.3c1.4-1.6,3.5-2.7,5.8-2.7c4.3,0,7.8,3.5,7.8,7.8l0,11.9c0,0.4,0,0.7,0,1.2c0,16.6,12.1,30.3,27.8,33.1
			c5.5,0.1,10.3-0.6,16.1-5.2C192.7,96.9,195.8,90.9,196.8,84.5z"/>
	</g>
	<g>
		<path fill="#212E32" d="M38.6,135.5c0.5,1.6,2.6,1.9,4.1,1.9c1.6,0,4.1-0.5,4.1-2.4c0-1.7-2-1.8-4.1-2c-2.6-0.2-5.5-0.5-5.5-3.3
			c0-2.5,2.9-3.6,5.2-3.6c2,0,4.5,0.5,5.3,2.7c0.3,0.8-1,1.1-1.3,0.5c-0.6-1.5-2.6-1.7-4-1.7c-1.3,0-3.8,0.5-3.8,2.3
			c0,1.7,1.9,1.8,4.1,2c2.6,0.2,5.4,0.4,5.4,3.2c0,2.9-3.3,3.8-5.6,3.8c-1.9,0-4.9-0.7-5.6-3C37,135,38.4,134.7,38.6,135.5z"/>
		<path fill="#212E32" d="M50.4,126.6c0-1,1.4-0.9,1.4,0V138c0,0.9-1.4,0.9-1.4,0V126.6z"/>
		<path fill="#212E32" d="M55.2,135.5c0.5,1.6,2.6,1.9,4.1,1.9c1.6,0,4.1-0.5,4.1-2.4c0-1.7-2-1.8-4.1-2c-2.6-0.2-5.5-0.5-5.5-3.3
			c0-2.5,2.9-3.6,5.2-3.6c2,0,4.5,0.5,5.3,2.7c0.3,0.8-1,1.1-1.3,0.5c-0.6-1.5-2.6-1.7-4-1.7c-1.3,0-3.8,0.5-3.8,2.3
			c0,1.7,1.9,1.8,4.1,2c2.6,0.2,5.4,0.4,5.4,3.2c0,2.9-3.3,3.8-5.6,3.8c-1.9,0-4.9-0.7-5.6-3C53.5,135,55,134.7,55.2,135.5z"/>
		<path fill="#212E32" d="M75.6,126.3c0.9,0,0.9,1.3,0,1.3h-4.3c0,3.4,0,6.9,0,10.4c0,0.5-0.4,0.7-0.7,0.7c-0.3,0-0.7-0.2-0.7-0.7
			v-10.4h-4.2c-0.9,0-0.9-1.3,0-1.3H75.6z"/>
		<path fill="#212E32" d="M79.4,137.2h7.5c0.8,0,0.9,1.3,0,1.3h-8c-0.5,0-0.9-0.4-0.9-0.8v-10.5c0-0.4,0.3-0.8,0.9-0.8h8.1
			c0.8,0,0.8,1.2,0,1.2h-7.5v4.3h7.2c0.8,0,0.8,1.2,0,1.2h-7.2V137.2z"/>
		<path fill="#212E32" d="M100.8,126.6c0.4-0.7,1.3-0.5,1.3,0.3v11c0,0.9-1.4,0.9-1.4,0v-8.7l-3.9,6.1c-0.3,0.6-1,0.6-1.3,0
			l-3.9-6.1v8.7c0,0.9-1.4,0.9-1.4,0v-11c0-0.8,0.9-1,1.3-0.3l4.7,7.3L100.8,126.6z"/>
		<path fill="#212E32" d="M106.9,135.3l-1.5,3c-0.3,0.7-1.6,0.2-1.3-0.6l5.8-11.4c0.1-0.2,0.4-0.4,0.6-0.4c0.2,0,0.5,0.1,0.6,0.4
			l5.8,11.3c0.5,0.8-0.9,1.3-1.3,0.6l-1.5-3H106.9z M110.5,128.1l-3,6h6L110.5,128.1z"/>
		<path fill="#212E32" d="M119.2,135.5c0.5,1.6,2.6,1.9,4.1,1.9c1.6,0,4.1-0.5,4.1-2.4c0-1.7-2-1.8-4.1-2c-2.6-0.2-5.5-0.5-5.5-3.3
			c0-2.5,2.9-3.6,5.2-3.6c2,0,4.5,0.5,5.3,2.7c0.3,0.8-1,1.1-1.3,0.5c-0.6-1.5-2.6-1.7-4-1.7c-1.3,0-3.8,0.5-3.8,2.3
			c0,1.7,1.9,1.8,4.1,2c2.6,0.2,5.4,0.4,5.4,3.2c0,2.9-3.3,3.8-5.6,3.8c-1.9,0-4.9-0.7-5.6-3C117.6,135,119.1,134.7,119.2,135.5z"/>
		<path fill="#212E32" d="M137.8,137.2h7.5c0.8,0,0.9,1.3,0,1.3h-8c-0.5,0-0.9-0.4-0.9-0.8v-10.5c0-0.4,0.3-0.8,0.9-0.8h8.1
			c0.8,0,0.8,1.2,0,1.2h-7.5v4.3h7.2c0.8,0,0.8,1.2,0,1.2h-7.2V137.2z"/>
		<path fill="#212E32" d="M164.5,126.6c0.4-0.7,1.3-0.5,1.3,0.3v11c0,0.9-1.4,0.9-1.4,0v-8.7l-3.9,6.1c-0.3,0.6-1,0.6-1.3,0
			l-3.9-6.1v8.7c0,0.9-1.4,0.9-1.4,0v-11c0-0.8,0.9-1,1.3-0.3l4.7,7.3L164.5,126.6z"/>
		<path fill="#212E32" d="M169,126.6c0-1,1.4-0.9,1.4,0V138c0,0.9-1.4,0.9-1.4,0V126.6z M170.6,123c0.6-0.8,1.7,0,1.1,0.6l-1.5,1.5
			c-0.7,0.6-1.3-0.1-1-0.6L170.6,123z"/>
		<path fill="#212E32" d="M173.9,138.5c-0.5,0-0.9-0.4-0.9-0.8v-10.5c0-0.4,0.4-0.8,0.9-0.8h4.2c3.8,0,5.7,3,5.7,6.1
			c0,3-1.9,6.1-5.7,6.1H173.9z M174.4,137.3h3.7c2.9,0,4.3-2.4,4.3-4.8c0-2.4-1.4-4.9-4.3-4.9h-3.7V137.3z"/>
		<path fill="#212E32" d="M186.2,126.6c0-1,1.4-0.9,1.4,0V138c0,0.9-1.4,0.9-1.4,0V126.6z"/>
		<path fill="#212E32" d="M191.9,135.3l-1.5,3c-0.3,0.7-1.6,0.2-1.3-0.6l5.8-11.4c0.1-0.2,0.4-0.4,0.6-0.4c0.2,0,0.5,0.1,0.6,0.4
			l5.8,11.3c0.5,0.8-0.9,1.3-1.3,0.6l-1.5-3H191.9z M195.5,128.1l-3,6h6L195.5,128.1z"/>
		<path fill="#212E32" d="M204.2,135.5c0.5,1.6,2.6,1.9,4.1,1.9c1.6,0,4.1-0.5,4.1-2.4c0-1.7-2-1.8-4.1-2c-2.6-0.2-5.5-0.5-5.5-3.3
			c0-2.5,2.9-3.6,5.2-3.6c2,0,4.5,0.5,5.3,2.7c0.3,0.8-1,1.1-1.3,0.5c-0.6-1.5-2.6-1.7-4-1.7c-1.3,0-3.8,0.5-3.8,2.3
			c0,1.7,1.9,1.8,4.1,2c2.6,0.2,5.4,0.4,5.4,3.2c0,2.9-3.3,3.8-5.6,3.8c-1.9,0-4.9-0.7-5.6-3C202.6,135,204.1,134.7,204.2,135.5z"/>
	</g>
	<g>
		<path fill="#212E32" d="M39.9,158.1c-0.5,0-0.9-0.4-0.9-0.8v-10.5c0-0.4,0.4-0.8,0.9-0.8h4.2c3.8,0,5.7,3,5.7,6.1
			c0,3-1.9,6.1-5.7,6.1H39.9z M40.4,156.8h3.7c2.9,0,4.3-2.4,4.3-4.8c0-2.4-1.4-4.9-4.3-4.9h-3.7V156.8z"/>
		<path fill="#212E32" d="M66.7,146.2c0-1,1.4-0.9,1.4,0v11.4c0,0.9-1.4,0.9-1.4,0V146.2z"/>
		<path fill="#212E32" d="M95.7,155.9c-1.1,1.5-3,2.3-4.9,2.3c-3.3,0-6.1-2.8-6-6.4c0-2.9,2.2-5.6,5.1-6.1c0.3,0,0.7-0.1,1-0.1
			c1.7,0,3.4,0.6,4.5,1.8c0.6,0.7-0.4,1.6-1,0.9c-1.1-1.2-2.8-1.7-4.3-1.3c-2.1,0.5-3.9,2.4-3.9,4.9c0,2.7,2.2,4.9,4.7,5
			c1.4,0,2.9-0.6,3.7-1.7v-2.5h-3.4c-0.9,0-0.8-1.3,0-1.3h4.1c0.6,0,0.7,0.3,0.7,0.7v3.2C95.9,155.5,95.8,155.8,95.7,155.9z"/>
		<path fill="#212E32" d="M113.4,146.2c0-1,1.4-0.9,1.4,0v11.4c0,0.9-1.4,0.9-1.4,0V146.2z"/>
		<path fill="#212E32" d="M141.2,145.9c0.9,0,0.9,1.3,0,1.3h-4.3c0,3.4,0,6.9,0,10.4c0,0.5-0.4,0.7-0.7,0.7s-0.7-0.2-0.7-0.7v-10.4
			h-4.2c-0.9,0-0.9-1.3,0-1.3H141.2z"/>
		<path fill="#212E32" d="M157.7,154.8l-1.5,3c-0.3,0.7-1.6,0.2-1.3-0.6l5.8-11.4c0.1-0.2,0.4-0.4,0.6-0.4c0.2,0,0.5,0.1,0.6,0.4
			l5.8,11.3c0.5,0.8-0.9,1.3-1.3,0.6l-1.5-3H157.7z M161.3,147.6l-3,6h6L161.3,147.6z"/>
		<path fill="#212E32" d="M184,146.2c0-1,1.4-0.9,1.4,0v11.4c0,0.9-1.4,0.9-1.4,0V146.2z"/>
		<path fill="#212E32" d="M203.2,155c0.5,1.6,2.6,1.9,4.1,1.9c1.6,0,4.1-0.5,4.1-2.4c0-1.7-2-1.8-4.1-2c-2.6-0.2-5.5-0.5-5.5-3.3
			c0-2.5,2.9-3.6,5.2-3.6c2,0,4.5,0.5,5.3,2.7c0.3,0.8-1,1.1-1.3,0.5c-0.6-1.5-2.6-1.7-4-1.7c-1.3,0-3.8,0.5-3.8,2.3
			c0,1.7,1.9,1.8,4.1,2c2.6,0.2,5.4,0.4,5.4,3.2c0,2.9-3.3,3.8-5.6,3.8c-1.9,0-4.9-0.7-5.6-3C201.6,154.5,203.1,154.3,203.2,155z"/>
	</g>
</g>
</svg>
